<svg width="6" height="10" viewBox="0 0 6 10" fill="none" xmlns="http://www.w3.org/2000/svg">
<path d="M3.59656 6.6073H2.18147C2.18516 6.27128 2.21106 5.98193 2.25916 5.73925C2.31095 5.49283 2.39789 5.27068 2.51998 5.0728C2.64576 4.87492 2.81225 4.67891 3.01942 4.48477C3.1933 4.32796 3.34499 4.17861 3.47447 4.03674C3.60396 3.89486 3.7057 3.74925 3.77969 3.59991C3.85368 3.44683 3.89068 3.27696 3.89068 3.09028C3.89068 2.87373 3.85738 2.69452 3.79079 2.55264C3.7279 2.40703 3.63171 2.29689 3.50222 2.22222C3.37643 2.14755 3.21735 2.11021 3.02497 2.11021C2.86589 2.11021 2.71791 2.14568 2.58102 2.21662C2.44414 2.28383 2.3313 2.38837 2.24251 2.53024C2.15742 2.67212 2.11302 2.8588 2.10932 3.09028H0.5C0.511099 2.57878 0.627636 2.15688 0.849612 1.8246C1.07529 1.48857 1.3768 1.24029 1.75416 1.07975C2.13152 0.915471 2.55512 0.833332 3.02497 0.833332C3.54292 0.833332 3.98687 0.919204 4.35683 1.09095C4.72679 1.25896 5.0098 1.50724 5.20588 1.8358C5.40196 2.16062 5.5 2.55638 5.5 3.02307C5.5 3.34789 5.43711 3.63724 5.31132 3.89113C5.18553 4.14128 5.0209 4.37463 4.81743 4.59117C4.61395 4.80772 4.39012 5.03173 4.14595 5.26322C3.93507 5.45363 3.79079 5.65337 3.7131 5.86245C3.6391 6.07153 3.60026 6.31982 3.59656 6.6073ZM2.01498 8.33781C2.01498 8.09886 2.09637 7.90098 2.25916 7.74417C2.42194 7.58363 2.64021 7.50336 2.91398 7.50336C3.18405 7.50336 3.40048 7.58363 3.56326 7.74417C3.72974 7.90098 3.81299 8.09886 3.81299 8.33781C3.81299 8.56929 3.72974 8.76531 3.56326 8.92585C3.40048 9.08639 3.18405 9.16667 2.91398 9.16667C2.64021 9.16667 2.42194 9.08639 2.25916 8.92585C2.09637 8.76531 2.01498 8.56929 2.01498 8.33781Z" fill="#BABABA"/>
</svg>
