<svg width="45" height="44" viewBox="0 0 45 44" fill="none" xmlns="http://www.w3.org/2000/svg">
<rect x="0.5" width="44" height="44" rx="22" fill="white" fill-opacity="0.05"/>
<path d="M17 30C15.4833 30 14.1877 29.475 13.113 28.425C12.0377 27.375 11.5 26.0917 11.5 24.575C11.5 23.275 11.8917 22.1167 12.675 21.1C13.4583 20.0833 14.4833 19.4333 15.75 19.15C16.1667 17.6167 17 16.375 18.25 15.425C19.5 14.475 20.9167 14 22.5 14C24.45 14 26.104 14.679 27.462 16.037C28.8207 17.3957 29.5 19.05 29.5 21C30.65 21.1333 31.6043 21.629 32.363 22.487C33.121 23.3457 33.5 24.35 33.5 25.5C33.5 26.75 33.0627 27.8127 32.188 28.688C31.3127 29.5627 30.25 30 29 30H23.5C22.95 30 22.4793 29.8043 22.088 29.413C21.696 29.021 21.5 28.55 21.5 28V22.85L19.9 24.4L18.5 23L22.5 19L26.5 23L25.1 24.4L23.5 22.85V28H29C29.7 28 30.2917 27.7583 30.775 27.275C31.2583 26.7917 31.5 26.2 31.5 25.5C31.5 24.8 31.2583 24.2083 30.775 23.725C30.2917 23.2417 29.7 23 29 23H27.5V21C27.5 19.6167 27.0127 18.4373 26.038 17.462C25.0627 16.4873 23.8833 16 22.5 16C21.1167 16 19.9377 16.4873 18.963 17.462C17.9877 18.4373 17.5 19.6167 17.5 21H17C16.0333 21 15.2083 21.3417 14.525 22.025C13.8417 22.7083 13.5 23.5333 13.5 24.5C13.5 25.4667 13.8417 26.2917 14.525 26.975C15.2083 27.6583 16.0333 28 17 28H19.5V30H17Z" fill="white"/>
</svg>
